<?xml version="1.0" encoding="iso-8859-1"?>
<!-- Generator: Adobe Illustrator 19.0.0, SVG Export Plug-In . SVG Version: 6.00 Build 0)  -->
<svg version="1.1" id="Layer_1" xmlns="http://www.w3.org/2000/svg" xmlns:xlink="http://www.w3.org/1999/xlink" x="0px" y="0px"
	 viewBox="0 0 512 512" style="enable-background:new 0 0 512 512;" xml:space="preserve">
<g>
	<g>
		<path d="M511.47,228.288c-19.338-74.972-66.682-116.73-102.995-138.557c-39.16-23.54-73.841-29.434-75.298-29.674l-5.314-0.873
			L0,222.111v230.705h512V230.338L511.47,228.288z M332.727,94.054c9.809,2.31,32.951,8.909,58.546,24.294
			c38.751,23.294,66.038,55.999,81.35,97.414H87.809L332.727,94.054z M478.609,419.424H33.391v-34.497h445.217V419.424z
			 M478.609,351.536H33.391v-34.495h445.217V351.536z M478.609,283.65H33.391v-34.497h445.217V283.65z"/>
	</g>
</g>
<g>
	<g>
		<path d="M339.021,116.572c-25.564,0-46.363,18.522-46.363,41.287s20.798,41.287,46.363,41.287
			c25.564,0,46.363-18.522,46.363-41.287S364.585,116.572,339.021,116.572z M339.021,165.755c-7.305,0-12.971-4.244-12.971-7.896
			c0-3.652,5.665-7.896,12.971-7.896c7.305,0,12.971,4.244,12.971,7.896C351.992,161.511,346.326,165.755,339.021,165.755z"/>
	</g>
</g>
<g>
</g>
<g>
</g>
<g>
</g>
<g>
</g>
<g>
</g>
<g>
</g>
<g>
</g>
<g>
</g>
<g>
</g>
<g>
</g>
<g>
</g>
<g>
</g>
<g>
</g>
<g>
</g>
<g>
</g>
</svg>
