<?xml version="1.0" encoding="utf-8"?>
<svg xmlns="http://www.w3.org/2000/svg" style="margin: auto; display: block; shape-rendering: auto;" width="202" height="46" preserveAspectRatio="xMidYMid">
<style type="text/css">
  text {
    text-anchor: middle; font-size: 55px; opacity: 0;
  }
</style>
<g style="transform-origin:101px 23px;transform:scale(1)">
<g transform="translate(101,23)">
  <g transform="translate(-4,0)"><g class="path" style="opacity: 1; transform-origin: -78.4133px 1.03052px 0px; animation: 1s linear -0.728571s infinite normal forwards running fade-40677c0c-65bf-460b-a296-4b6ad6c8086d;"><path d="M21.39-28.93L19.91-23.82L19.91-23.82Q18.86-24.25 17.43-24.25L17.43-24.25L17.43-24.25Q15.89-24.25 14.44-23.59L14.44-23.59L14.44-23.59Q12.98-22.93 11.85-21.61L11.85-21.61L11.85-21.61Q10.72-20.30 10.04-18.23L10.04-18.23L10.04-18.23Q9.35-16.17 9.35-13.37L9.35-13.37L9.35 0L4.40 0L4.40-28.60L9.19-28.60L9.19-22.39L9.19-22.39Q9.68-23.71 10.51-24.97L10.51-24.97L10.51-24.97Q11.33-26.23 12.46-27.17L12.46-27.17L12.46-27.17Q13.59-28.11 15.07-28.68L15.07-28.68L15.07-28.68Q16.55-29.26 18.37-29.26L18.37-29.26L18.37-29.26Q19.20-29.26 19.99-29.18L19.99-29.18L19.99-29.18Q20.79-29.09 21.39-28.93L21.39-28.93" fill="#222222" stroke="none" stroke-width="none" transform="translate(-91.308349609375,15.660523202078693)" style="fill: rgb(34, 34, 34);"></path></g><g class="path" style="opacity: 1; transform-origin: -55.9133px 1.36052px 0px; animation: 1s linear -0.607143s infinite normal forwards running fade-40677c0c-65bf-460b-a296-4b6ad6c8086d;"><path d="M47.85-12.27L27.83-12.27L27.83-12.27Q28.33-8.25 30.64-6.00L30.64-6.00L30.64-6.00Q32.95-3.74 36.74-3.74L36.74-3.74L36.74-3.74Q39.22-3.74 41.20-4.26L41.20-4.26L41.20-4.26Q43.17-4.79 44.99-5.61L44.99-5.61L46.15-1.38L46.15-1.38Q44.17-0.44 41.69 0.11L41.69 0.11L41.69 0.11Q39.22 0.66 36.14 0.66L36.14 0.66L36.14 0.66Q33.05 0.66 30.58-0.36L30.58-0.36L30.58-0.36Q28.11-1.38 26.37-3.27L26.37-3.27L26.37-3.27Q24.64-5.17 23.71-7.95L23.71-7.95L23.71-7.95Q22.77-10.72 22.77-14.30L22.77-14.30L22.77-14.30Q22.77-17.49 23.71-20.24L23.71-20.24L23.71-20.24Q24.64-22.99 26.35-25.00L26.35-25.00L26.35-25.00Q28.05-27.00 30.41-28.13L30.41-28.13L30.41-28.13Q32.78-29.26 35.70-29.26L35.70-29.26L35.70-29.26Q38.78-29.26 41.09-28.21L41.09-28.21L41.09-28.21Q43.40-27.17 44.94-25.36L44.94-25.36L44.94-25.36Q46.48-23.54 47.25-21.12L47.25-21.12L47.25-21.12Q48.02-18.70 48.02-16.00L48.02-16.00L48.02-16.00Q48.02-14.08 47.85-12.27L47.85-12.27zM35.59-24.97L35.59-24.97L35.59-24.97Q32.34-24.97 30.28-22.77L30.28-22.77L30.28-22.77Q28.22-20.57 27.78-16.28L27.78-16.28L43.45-16.28L43.45-16.28Q43.45-20.46 41.36-22.71L41.36-22.71L41.36-22.71Q39.27-24.97 35.59-24.97" fill="#222222" stroke="none" stroke-width="none" transform="translate(-91.308349609375,15.660523202078693)" style="fill: rgb(53, 57, 58);"></path></g><g class="path" style="opacity: 1; transform-origin: -27.5633px 1.36052px 0px; animation: 1s linear -0.485714s infinite normal forwards running fade-40677c0c-65bf-460b-a296-4b6ad6c8086d;"><path d="M74.36-27.55L72.88-23.38L72.88-23.38Q71.28-24.14 69.91-24.50L69.91-24.50L69.91-24.50Q68.53-24.86 66.83-24.86L66.83-24.86L66.83-24.86Q64.90-24.86 63.22-24.14L63.22-24.14L63.22-24.14Q61.55-23.43 60.34-22.08L60.34-22.08L60.34-22.08Q59.13-20.73 58.44-18.81L58.44-18.81L58.44-18.81Q57.75-16.89 57.75-14.41L57.75-14.41L57.75-14.41Q57.75-12.15 58.38-10.23L58.38-10.23L58.38-10.23Q59.02-8.30 60.17-6.85L60.17-6.85L60.17-6.85Q61.33-5.39 62.92-4.57L62.92-4.57L62.92-4.57Q64.52-3.74 66.50-3.74L66.50-3.74L66.50-3.74Q68.59-3.74 70.07-4.18L70.07-4.18L70.07-4.18Q71.56-4.62 73.26-5.55L73.26-5.55L74.80-1.38L74.80-1.38Q73.04-0.44 70.95 0.11L70.95 0.11L70.95 0.11Q68.86 0.66 66.17 0.66L66.17 0.66L66.17 0.66Q63.09 0.66 60.61-0.44L60.61-0.44L60.61-0.44Q58.14-1.54 56.38-3.52L56.38-3.52L56.38-3.52Q54.62-5.50 53.65-8.25L53.65-8.25L53.65-8.25Q52.69-11 52.69-14.30L52.69-14.30L52.69-14.30Q52.69-17.38 53.65-20.10L53.65-20.10L53.65-20.10Q54.62-22.82 56.43-24.86L56.43-24.86L56.43-24.86Q58.25-26.89 60.80-28.08L60.80-28.08L60.80-28.08Q63.36-29.26 66.55-29.26L66.55-29.26L66.55-29.26Q69.03-29.26 70.84-28.82L70.84-28.82L70.84-28.82Q72.66-28.38 74.36-27.55L74.36-27.55" fill="#222222" stroke="none" stroke-width="none" transform="translate(-91.308349609375,15.660523202078693)" style="fill: rgb(34, 34, 34);"></path></g><g class="path" style="opacity: 1; transform-origin: -4.24335px -4.35948px 0px; animation: 1s linear -0.364286s infinite normal forwards running fade-40677c0c-65bf-460b-a296-4b6ad6c8086d;"><path d="M84.70-40.70L84.70-9.46L84.70-9.46Q84.70-6.49 85.94-5.06L85.94-5.06L85.94-5.06Q87.18-3.63 89.38-3.63L89.38-3.63L89.38-3.63Q90.42-3.63 91.41-3.88L91.41-3.88L91.41-3.88Q92.40-4.13 93.17-4.46L93.17-4.46L94.38-0.44L94.38-0.44Q93.39 0 91.93 0.33L91.93 0.33L91.93 0.33Q90.48 0.66 88.72 0.66L88.72 0.66L88.72 0.66Q86.79 0.66 85.17 0.11L85.17 0.11L85.17 0.11Q83.55-0.44 82.34-1.59L82.34-1.59L82.34-1.59Q81.13-2.75 80.44-4.57L80.44-4.57L80.44-4.57Q79.75-6.38 79.75-8.96L79.75-8.96L79.75-40.70L84.70-40.70" fill="#222222" stroke="none" stroke-width="none" transform="translate(-91.308349609375,15.660523202078693)" style="fill: rgb(53, 57, 58);"></path></g><g class="path" style="opacity: 1; transform-origin: 18.9666px 1.36052px 0px; animation: 1s linear -0.242857s infinite normal forwards running fade-40677c0c-65bf-460b-a296-4b6ad6c8086d;"><path d="M119.46-14.30L119.46-14.30L119.46-14.30Q119.46-16.45 118.77-18.37L118.77-18.37L118.77-18.37Q118.09-20.30 116.85-21.73L116.85-21.73L116.85-21.73Q115.61-23.16 113.93-24.01L113.93-24.01L113.93-24.01Q112.26-24.86 110.28-24.86L110.28-24.86L110.28-24.86Q105.93-24.86 103.51-22L103.51-22L103.51-22Q101.09-19.14 101.09-14.41L101.09-14.41L101.09-14.41Q101.09-12.27 101.78-10.31L101.78-10.31L101.78-10.31Q102.47-8.36 103.70-6.90L103.70-6.90L103.70-6.90Q104.94-5.45 106.62-4.59L106.62-4.59L106.62-4.59Q108.30-3.74 110.28-3.74L110.28-3.74L110.28-3.74Q112.42-3.74 114.13-4.51L114.13-4.51L114.13-4.51Q115.83-5.28 117.01-6.68L117.01-6.68L117.01-6.68Q118.20-8.09 118.83-10.01L118.83-10.01L118.83-10.01Q119.46-11.94 119.46-14.30zM96.03-14.30L96.03-14.30L96.03-14.30Q96.03-17.77 97.13-20.54L97.13-20.54L97.13-20.54Q98.23-23.32 100.13-25.25L100.13-25.25L100.13-25.25Q102.03-27.17 104.64-28.21L104.64-28.21L104.64-28.21Q107.25-29.26 110.28-29.26L110.28-29.26L110.28-29.26Q113.25-29.26 115.86-28.21L115.86-28.21L115.86-28.21Q118.47-27.17 120.40-25.25L120.40-25.25L120.40-25.25Q122.32-23.32 123.42-20.57L123.42-20.57L123.42-20.57Q124.52-17.82 124.52-14.41L124.52-14.41L124.52-14.41Q124.52-11 123.45-8.22L123.45-8.22L123.45-8.22Q122.38-5.45 120.45-3.46L120.45-3.46L120.45-3.46Q118.53-1.49 115.91-0.41L115.91-0.41L115.91-0.41Q113.30 0.66 110.28 0.66L110.28 0.66L110.28 0.66Q107.20 0.66 104.58-0.44L104.58-0.44L104.58-0.44Q101.97-1.54 100.07-3.52L100.07-3.52L100.07-3.52Q98.18-5.50 97.10-8.25L97.10-8.25L97.10-8.25Q96.03-11 96.03-14.30" fill="#222222" stroke="none" stroke-width="none" transform="translate(-91.308349609375,15.660523202078693)" style="fill: rgb(34, 34, 34);"></path></g><g class="path" style="opacity: 1; transform-origin: 51.8317px 1.03052px 0px; animation: 1s linear -0.121429s infinite normal forwards running fade-40677c0c-65bf-460b-a296-4b6ad6c8086d;"><path d="M135.91-28.60L135.91-23.82L135.91-23.82Q137.45-26.13 139.84-27.69L139.84-27.69L139.84-27.69Q142.23-29.26 145.53-29.26L145.53-29.26L145.53-29.26Q150.37-29.26 152.76-26.34L152.76-26.34L152.76-26.34Q155.16-23.43 155.16-18.64L155.16-18.64L155.16 0L150.21 0L150.21-18.09L150.21-18.09Q150.21-21.23 148.78-23.07L148.78-23.07L148.78-23.07Q147.35-24.91 144.71-24.91L144.71-24.91L144.71-24.91Q143.44-24.91 142.23-24.45L142.23-24.45L142.23-24.45Q141.02-23.98 139.89-23.16L139.89-23.16L139.89-23.16Q138.77-22.33 137.80-21.23L137.80-21.23L137.80-21.23Q136.84-20.13 136.07-18.92L136.07-18.92L136.07 0L131.12 0L131.12-28.60L135.91-28.60" fill="#222222" stroke="none" stroke-width="none" transform="translate(-91.308349609375,15.660523202078693)" style="fill: rgb(53, 57, 58);"></path></g><g class="path" style="opacity: 1; transform-origin: 83.0717px 1.36052px 0px; animation: 1s linear 0s infinite normal forwards running fade-40677c0c-65bf-460b-a296-4b6ad6c8086d;"><path d="M186.84-12.27L166.82-12.27L166.82-12.27Q167.31-8.25 169.62-6.00L169.62-6.00L169.62-6.00Q171.93-3.74 175.73-3.74L175.73-3.74L175.73-3.74Q178.20-3.74 180.18-4.26L180.18-4.26L180.18-4.26Q182.16-4.79 183.98-5.61L183.98-5.61L185.13-1.38L185.13-1.38Q183.15-0.44 180.68 0.11L180.68 0.11L180.68 0.11Q178.20 0.66 175.12 0.66L175.12 0.66L175.12 0.66Q172.04 0.66 169.57-0.36L169.57-0.36L169.57-0.36Q167.09-1.38 165.36-3.27L165.36-3.27L165.36-3.27Q163.63-5.17 162.69-7.95L162.69-7.95L162.69-7.95Q161.76-10.72 161.76-14.30L161.76-14.30L161.76-14.30Q161.76-17.49 162.69-20.24L162.69-20.24L162.69-20.24Q163.63-22.99 165.33-25.00L165.33-25.00L165.33-25.00Q167.04-27.00 169.40-28.13L169.40-28.13L169.40-28.13Q171.77-29.26 174.68-29.26L174.68-29.26L174.68-29.26Q177.76-29.26 180.07-28.21L180.07-28.21L180.07-28.21Q182.38-27.17 183.92-25.36L183.92-25.36L183.92-25.36Q185.46-23.54 186.23-21.12L186.23-21.12L186.23-21.12Q187.00-18.70 187.00-16.00L187.00-16.00L187.00-16.00Q187.00-14.08 186.84-12.27L186.84-12.27zM174.57-24.97L174.57-24.97L174.57-24.97Q171.33-24.97 169.26-22.77L169.26-22.77L169.26-22.77Q167.20-20.57 166.76-16.28L166.76-16.28L182.44-16.28L182.44-16.28Q182.44-20.46 180.35-22.71L180.35-22.71L180.35-22.71Q178.26-24.97 174.57-24.97" fill="#222222" stroke="none" stroke-width="none" transform="translate(-91.308349609375,15.660523202078693)" style="fill: rgb(34, 34, 34);"></path></g></g>
</g>
</g>
<style id="fade-40677c0c-65bf-460b-a296-4b6ad6c8086d" data-anikit="">@keyframes fade-40677c0c-65bf-460b-a296-4b6ad6c8086d
{
  0% {
    animation-timing-function: cubic-bezier(0.2057,0.573,0.3723,0.9184);
    opacity: 1;
  }
  100% {
    opacity: 0;
  }
}</style></svg>